<?xml version="1.0" standalone="no"?><!DOCTYPE svg PUBLIC "-//W3C//DTD SVG 1.1//EN" "http://www.w3.org/Graphics/SVG/1.1/DTD/svg11.dtd"><svg t="1506930683836" class="icon" style="" viewBox="0 0 1024 1024" version="1.1" xmlns="http://www.w3.org/2000/svg" p-id="2366" xmlns:xlink="http://www.w3.org/1999/xlink" width="64" height="64"><defs><style type="text/css"></style></defs><path d="M198.7584 359.5264c-15.6672 0-28.3648-10.752-28.3648-23.9616 0-13.2096 12.6976-23.9616 28.3648-23.9616l626.3808 0c15.6672 0 28.3648 10.752 28.3648 23.9616 0 13.2096-12.6976 23.9616-28.3648 23.9616L198.7584 359.5264z" p-id="2367"></path><path d="M198.7584 535.9616c-15.6672 0-28.3648-10.752-28.3648-23.9616 0-13.2096 12.6976-23.9616 28.3648-23.9616l626.3808 0c15.6672 0 28.3648 10.752 28.3648 23.9616 0 13.2096-12.6976 23.9616-28.3648 23.9616L198.7584 535.9616z" p-id="2368"></path><path d="M198.7584 712.3968c-15.6672 0-28.3648-10.752-28.3648-23.9616 0-13.2096 12.6976-23.9616 28.3648-23.9616l626.3808 0c15.6672 0 28.3648 10.752 28.3648 23.9616 0 13.2096-12.6976 23.9616-28.3648 23.9616L198.7584 712.3968z" p-id="2369"></path></svg>