<?xml version="1.0" standalone="no"?><!DOCTYPE svg PUBLIC "-//W3C//DTD SVG 1.1//EN" "http://www.w3.org/Graphics/SVG/1.1/DTD/svg11.dtd"><svg t="1505459205025" class="icon" style="" viewBox="0 0 1024 1024" version="1.1" xmlns="http://www.w3.org/2000/svg" p-id="2668" xmlns:xlink="http://www.w3.org/1999/xlink" width="64" height="64"><defs><style type="text/css"></style></defs><path d="M980.114286 0S570.514286 3.657143 530.285714 43.885714L29.257143 544.914286c-36.571429 36.571429-36.571429 98.742857 0 135.314285l314.514286 310.857143c36.571429 36.571429 98.742857 36.571429 135.314285 0l504.685715-504.685714C1020.342857 449.828571 1024 36.571429 1024 36.571429c0-18.285714-18.285714-36.571429-43.885714-36.571429z m-223.085715 369.371429c-29.257143 29.257143-73.142857 29.257143-98.742857 0-29.257143-29.257143-29.257143-73.142857 0-98.742858 29.257143-29.257143 73.142857-29.257143 98.742857 0 29.257143 25.6 29.257143 69.485714 0 98.742858z" fill="#2c2c2c" p-id="2669"></path></svg>