<?xml version="1.0" standalone="no"?><!DOCTYPE svg PUBLIC "-//W3C//DTD SVG 1.1//EN" "http://www.w3.org/Graphics/SVG/1.1/DTD/svg11.dtd"><svg t="1505786745639" class="icon" style="" viewBox="0 0 1024 1024" version="1.1" xmlns="http://www.w3.org/2000/svg" p-id="3056" xmlns:xlink="http://www.w3.org/1999/xlink" width="64" height="64"><defs><style type="text/css"></style></defs><path d="M185.6 207.1v221.5H247V207.1h83.7v-50.2H101.9v50.2h83.7z" fill="#6DB92D" p-id="3057"></path><path d="M252.9 434.4h-73.1V213H96v-62h240.6v62h-83.7v221.4z m-61.4-11.7h49.7V201.2h83.7v-38.5H107.8v38.5h83.7v221.5zM422.5 201.4v-44.5h-55.6v44.5h55.6z" fill="#6DB92D" p-id="3058"></path><path d="M428.3 207.2H361V151h67.3v56.2z m-55.5-11.7h43.8v-32.8h-43.8v32.8zM366.9 231.8v196.8h55.6V231.8h-55.6z" fill="#6DB92D" p-id="3059"></path><path d="M428.3 434.4H361V226h67.3v208.4z m-55.5-11.7h43.8v-185h-43.8v185zM545.1 231.8v-59h-55.5v59H456V268h33.6v116.1c0 9.9 1.7 17.9 5.1 24 3.4 6.1 8 10.8 13.9 14.1 5.9 3.3 12.6 5.5 20.3 6.7 7.7 1.1 15.8 1.7 24.4 1.7 5.5 0 11.1-0.1 16.8-0.4 5.7-0.3 11-0.8 15.6-1.5v-41.9c-2.6 0.5-5.3 0.9-8.2 1.1-2.9 0.3-5.9 0.4-9 0.4-9.4 0-15.6-1.5-18.8-4.6-3.1-3-4.7-9.1-4.7-18.3V268h40.7v-36.2h-40.6z" fill="#6DB92D" p-id="3060"></path><path d="M553.3 436.3c-8.9 0-17.4-0.6-25.3-1.8-8.4-1.2-15.9-3.7-22.4-7.3-6.8-3.8-12.2-9.3-16.1-16.3-3.9-6.9-5.8-16-5.8-26.8V273.9H450V226h33.6v-59h67.3v59h40.7v47.9h-40.7v91.6c0 10.4 2.2 13.4 2.9 14.1 0.7 0.7 3.8 2.9 14.7 2.9 2.9 0 5.8-0.1 8.5-0.4 2.7-0.2 5.2-0.6 7.6-1.1l7-1.4v54l-4.9 0.8c-4.9 0.8-10.3 1.3-16.3 1.6-5.8 0.2-11.5 0.3-17.1 0.3z m-91.6-174.2h33.6V384c0 8.8 1.5 15.9 4.3 21.1 2.9 5.2 6.7 9 11.6 11.8 5.2 2.9 11.4 4.9 18.3 6 12.2 1.8 25.8 2 40.1 1.3 3.6-0.2 6.9-0.4 10.1-0.8v-30c-0.6 0.1-1.2 0.1-1.8 0.2-3 0.3-6.2 0.4-9.5 0.4-11.1 0-18.5-2-22.9-6.2-4.3-4.3-6.5-11.6-6.5-22.5V262.1h40.7v-24.4H539v-59h-43.8v59h-33.6v24.4zM622.3 156.9v271.7h55.6V156.9h-55.6z" fill="#6DB92D" p-id="3061"></path><path d="M683.7 434.4h-67.3V151h67.3v283.4z m-55.5-11.7H672v-260h-43.8v260zM148.8 525.8h737.8v62.1H148.8v-62.1z" fill="#6DB92D" p-id="3062"></path><path d="M892.5 593.8H142.9v-73.9h749.5v73.9z m-737.9-11.7h726.1v-50.4H154.6v50.4zM148.8 665.4h737.8v62.1H148.8v-62.1z" fill="#6DB92D" p-id="3063"></path><path d="M892.5 733.4H142.9v-73.9h749.5v73.9z m-737.9-11.7h726.1v-50.4H154.6v50.4zM148.8 805h553.3v62.1H148.8V805z" fill="#6DB92D" p-id="3064"></path><path d="M708 873H142.9v-73.9H708V873z m-553.4-11.7h541.6v-50.4H154.6v50.4zM854.5 385c-8.1 5.5-17.7 8.2-28.9 8.2-15.6 0-27.6-3.9-36-11.8-8.3-7.9-12.9-20.6-13.7-38.1h145.9c1-15.2-0.3-29.8-3.9-43.8-3.7-14-9.6-26.4-17.8-37.3-8.2-10.9-18.7-19.6-31.5-26.1s-27.8-9.7-45-9.7c-15.4 0-29.4 2.7-42.1 8-12.6 5.3-23.5 12.6-32.7 21.9-9.1 9.3-16.2 20.2-21.1 32.9-5 12.7-7.4 26.4-7.4 41.1 0 15.2 2.4 29.2 7.2 41.9 4.8 12.7 11.7 23.6 20.5 32.7 8.9 9.1 19.7 16.2 32.5 21.1 12.8 4.9 27.1 7.4 43 7.4 22.9 0 42.5-5.1 58.7-15.2 16.2-10.1 28.2-27 36-50.6h-48.9c-1.8 6.2-6.8 12-14.8 17.4z m-76.1-88.9c1.4-4.8 3.9-9.4 7.4-13.7 3.5-4.3 8.2-7.9 14.1-10.8 5.9-2.9 13.2-4.4 22.1-4.4 13.6 0 23.7 3.6 30.3 10.7 6.6 7.1 11.3 17.5 13.9 31.2h-90.4c0.3-3.8 1.1-8.1 2.6-13z" fill="#6DB92D" p-id="3065"></path><path d="M823.6 439.4c-16.6 0-31.7-2.6-45.2-7.8-13.5-5.2-25.1-12.8-34.6-22.5-9.4-9.7-16.7-21.3-21.8-34.7-5.1-13.3-7.6-28.1-7.6-43.9 0-15.4 2.6-29.9 7.8-43.2 5.2-13.4 12.8-25.2 22.4-34.9 9.6-9.8 21.3-17.6 34.6-23.2 13.3-5.6 28.2-8.5 44.3-8.5 18 0 34 3.5 47.6 10.3 13.5 6.8 24.8 16.2 33.5 27.8 8.6 11.5 15 24.7 18.8 39.3 3.8 14.5 5.2 29.8 4.1 45.6l-0.4 5.5H782.2c1.4 12.7 5.2 22.1 11.4 27.9 7.2 6.8 18 10.2 32 10.2 10.1 0 18.5-2.4 25.7-7.2 6.9-4.6 11.1-9.4 12.5-14.1l1.2-4.2h61.4l-2.6 7.7c-8.2 24.8-21.2 42.9-38.4 53.7-17.1 10.8-37.9 16.2-61.8 16.2z m0-207c-14.5 0-27.9 2.5-39.8 7.6-11.9 5-22.2 11.9-30.8 20.6-8.5 8.6-15.2 19-19.8 30.9-4.7 11.9-7 25-7 39 0 14.5 2.3 27.9 6.8 39.8 4.5 11.9 11 22.2 19.3 30.7 8.2 8.5 18.5 15.1 30.4 19.7 12 4.7 25.8 7 40.9 7 21.7 0 40.4-4.8 55.6-14.3 13.1-8.2 23.4-21.6 30.7-39.8h-36.6c-2.9 5.8-8.1 11.3-15.5 16.3-9 6.1-19.9 9.2-32.2 9.2-17.1 0-30.6-4.5-40-13.4-9.5-8.9-14.7-23-15.5-42l-0.3-6.1h146.5c0.4-12.6-1-24.8-4-36.4-3.4-13.1-9.1-25-16.8-35.3-7.6-10.1-17.6-18.3-29.5-24.4-12-6.1-26.3-9.1-42.4-9.1z m49.7 82.5H769.6l0.4-6.3c0.3-4.2 1.2-9 2.8-14.2 1.6-5.5 4.5-10.8 8.5-15.7 4-4.9 9.4-9.1 16-12.4 6.6-3.3 15-5 24.7-5 15.2 0 26.8 4.2 34.6 12.5 7.4 7.9 12.5 19.3 15.4 34.1l1.3 7z m-90.7-11.7h76.2c-2.5-9.2-6.1-16.3-10.8-21.3-5.5-5.8-14.2-8.8-26-8.8-7.9 0-14.5 1.3-19.5 3.8-5.1 2.5-9.2 5.7-12.2 9.3-3.1 3.8-5.2 7.6-6.4 11.7-0.5 1.8-0.9 3.6-1.3 5.3z" fill="#6DB92D" p-id="3066"></path></svg>