<?xml version="1.0" standalone="no"?><!DOCTYPE svg PUBLIC "-//W3C//DTD SVG 1.1//EN" "http://www.w3.org/Graphics/SVG/1.1/DTD/svg11.dtd"><svg t="1505380337961" class="icon" style="" viewBox="0 0 1024 1024" version="1.1" xmlns="http://www.w3.org/2000/svg" p-id="5213" xmlns:xlink="http://www.w3.org/1999/xlink" width="64" height="64"><defs><style type="text/css"></style></defs><path d="M512 918.0479c-224.25653 0-406.0479-181.791369-406.0479-406.0479s181.791369-406.0479 406.0479-406.0479 406.0479 181.791369 406.0479 406.0479S736.25653 918.0479 512 918.0479L512 918.0479zM512 156.708088c-196.226127 0-355.291912 159.065785-355.291912 355.291912s159.065785 355.291912 355.291912 355.291912 355.291912-159.065785 355.291912-355.291912S708.226127 156.708088 512 156.708088L512 156.708088zM702.82921 562.166563 511.410576 562.166563l-49.563836 0 0-49.563836L461.84674 321.184093c0-13.687744 11.093662-24.78243 24.781406-24.78243 13.687744 0 24.78243 11.094686 24.78243 24.78243l0 191.418634 191.418634 0c13.687744 0 24.78243 11.093662 24.78243 24.781406C727.611639 551.059598 716.516954 562.15326 702.82921 562.166563L702.82921 562.166563z" p-id="5214"></path></svg>